<?xml version="1.0" encoding="UTF-8"?>
<svg width="465px" height="107px" viewBox="0 0 465 107" version="1.1" xmlns="http://www.w3.org/2000/svg" xmlns:xlink="http://www.w3.org/1999/xlink">
    <!-- Generator: Sketch 46.2 (44496) - http://www.bohemiancoding.com/sketch -->
    <title>Instaclone</title>
    <desc>Created with Sketch.</desc>
    <defs></defs>
    <g id="Page-1" stroke="none" stroke-width="1" fill="none" fill-rule="evenodd" fill-opacity="1">
        <g id="Artboard" transform="translate(-26.000000, -65.000000)" fill="#000000">
            <path d="M252.65,125.35 C252.65,124.249994 252.550001,122.950007 252.35,121.45 C252.149999,119.949992 251.800003,118.550006 251.3,117.25 C250.799998,115.949994 250.050005,114.850005 249.05,113.95 C248.049995,113.049995 246.700009,112.6 245,112.6 C242.199986,112.6 239.925009,113.874987 238.175,116.425 C236.424991,118.975013 235.050005,121.974983 234.05,125.425 C233.049995,128.875017 232.400002,132.424982 232.1,136.075 C231.799999,139.725018 231.65,142.599989 231.65,144.7 C231.65,146.300008 231.724999,148.224989 231.875,150.475 C232.025001,152.725011 232.299998,154.84999 232.7,156.85 C233.100002,158.85001 233.674996,160.549993 234.425,161.95 C235.175004,163.350007 236.149994,164.05 237.35,164.05 C240.250015,164.05 242.474992,162.925011 244.025,160.675 C245.575008,158.424989 246.749996,155.625017 247.55,152.275 C248.350004,148.924983 248.924998,145.325019 249.275,141.475 C249.625002,137.624981 249.949999,134.100016 250.25,130.9 C250.450001,129.199992 250.899997,128.125002 251.6,127.675 C252.300004,127.224998 252.65,126.900001 252.65,126.7 L252.65,125.35 Z M89,76.3 C88.8999995,76.4000005 88.7750008,76.649998 88.625,77.05 C88.4749992,77.450002 88.4,78.149995 88.4,79.15 C88.4,80.550007 88.599998,81.8999935 89,83.2 L89,132.85 C89,137.950025 88.500005,142.849977 87.5,147.55 C86.499995,152.250023 84.7750123,156.424982 82.325,160.075 C79.8749878,163.725018 76.5250213,166.624989 72.275,168.775 C68.0249788,170.925011 62.600033,172 56,172 L54.05,172 C48.3499715,172 43.7250177,171.225008 40.175,169.675 C36.6249823,168.124992 33.85001,166.150012 31.85,163.75 C29.84999,161.349988 28.5000035,158.725014 27.8,155.875 C27.0999965,153.024986 26.75,150.300013 26.75,147.7 C26.75,145.499989 27.0249972,143.37501 27.575,141.325 C28.1250028,139.27499 28.9249947,137.475008 29.975,135.925 C31.0250052,134.374992 32.2999925,133.125005 33.8,132.175 C35.3000075,131.224995 36.9999905,130.75 38.9,130.75 C40.700009,130.75 41.8499975,131.224995 42.35,132.175 C42.8500025,133.125005 43.1,134.099995 43.1,135.1 C43.1,137.300011 42.6500045,139.124993 41.75,140.575 C40.8499955,142.025007 39.8750053,143.299995 38.825,144.4 C37.7749947,145.500005 36.8000045,146.599994 35.9,147.7 C34.9999955,148.800005 34.55,150.149992 34.55,151.75 C34.55,156.550024 36.149984,159.99999 39.35,162.1 C42.550016,164.200011 46.549976,165.25 51.35,165.25 C55.550021,165.25 59.1999845,164.400009 62.3,162.7 C65.4000155,160.999992 67.9749897,158.850013 70.025,156.25 C72.0750103,153.649987 73.599995,150.825015 74.6,147.775 C75.600005,144.724985 76.1,141.850013 76.1,139.15 L73.85,139.3 C70.249982,139.3 67.1250132,138.475008 64.475,136.825 C61.8249868,135.174992 59.6250087,133.100012 57.875,130.6 C56.1249913,128.099987 54.8250042,125.400014 53.975,122.5 C53.1249957,119.599986 52.7,116.900013 52.7,114.4 L52.7,109.15 C52.7,107.249991 52.9499975,105.025013 53.45,102.475 C53.9500025,99.9249873 54.6499955,97.2750138 55.55,94.525 C56.4500045,91.7749863 57.5499935,89.0750133 58.85,86.425 C60.1500065,83.7749867 61.5499925,81.4000105 63.05,79.3 C64.5500075,77.1999895 66.1499915,75.5000065 67.85,74.2 C69.5500085,72.8999935 71.299991,72.25 73.1,72.25 C73.8000035,72.25 74.5999955,72.3999985 75.5,72.7 L86,73.45 C86.7000035,73.5500005 87.3749967,73.799998 88.025,74.2 C88.6750033,74.600002 89,75.299995 89,76.3 Z M76.1,94.3 C76.300001,93.499996 76.499999,92.7500035 76.7,92.05 C76.900001,91.3499965 77,90.5500045 77,89.65 C77,88.3499935 76.6750033,87.1750052 76.025,86.125 C75.3749967,85.0749948 74.2000085,84.55 72.5,84.55 C70.299989,84.55 68.500007,85.449991 67.1,87.25 C65.699993,89.050009 64.6250037,91.1999875 63.875,93.7 C63.1249963,96.2000125 62.6000015,98.7999865 62.3,101.5 C61.9999985,104.200014 61.85,106.399991 61.85,108.1 C61.85,109.400007 61.949999,111.274988 62.15,113.725 C62.350001,116.175012 62.8249962,118.599988 63.575,121 C64.3250037,123.400012 65.3749932,125.499991 66.725,127.3 C68.0750068,129.100009 69.8999885,130 72.2,130 C72.400001,130 72.9749953,129.95 73.925,129.85 C74.8750048,129.75 75.5999975,129.600001 76.1,129.4 L76.1,94.3 Z M123.35,133.3 C121.849992,135.400011 120.625005,137.724987 119.675,140.275 C118.724995,142.825013 117.900003,145.474986 117.2,148.225 C116.499997,150.975014 115.925002,153.724986 115.475,156.475 C115.024998,159.225014 114.550002,161.849987 114.05,164.35 C113.849999,164.950003 113.075007,165.349999 111.725,165.55 C110.374993,165.750001 109.400003,165.85 108.8,165.85 C106.999991,165.85 105.525006,165.750001 104.375,165.55 C103.224994,165.349999 102.350003,164.875004 101.75,164.125 C101.149997,163.374996 100.700001,162.225008 100.4,160.675 C100.099998,159.124992 99.850001,157.050013 99.65,154.45 L101.6,109.9 C101.6,108.599994 102.299993,107.95 103.7,107.95 C104.200002,107.95 104.899996,108.024999 105.8,108.175 C106.700005,108.325001 107.649995,108.549998 108.65,108.85 C109.650005,109.150002 110.499997,109.524998 111.2,109.975 C111.900003,110.425002 112.25,110.949997 112.25,111.55 L112.25,142 C112.35,141.9 112.499999,141.500003 112.7,140.8 C113.400003,138.999991 114.249995,136.775013 115.25,134.125 C116.250005,131.474987 117.349994,128.950012 118.55,126.55 C119.750006,124.149988 121.024993,122.100009 122.375,120.4 C123.725007,118.699992 125.099993,117.85 126.5,117.85 C128.300009,117.85 129.674995,118.274996 130.625,119.125 C131.575005,119.975004 132.299997,121.049993 132.8,122.35 C133.300003,123.650006 133.599999,125.049993 133.7,126.55 C133.800001,128.050007 133.85,129.499993 133.85,130.9 C133.85,131.900005 133.750001,133.549989 133.55,135.85 C133.349999,138.150012 133.25,141.599977 133.25,146.2 C133.25,148.800013 133.499998,151.14999 134,153.25 C134.500002,155.35001 135.499993,156.4 137,156.4 C138.100006,156.4 139.099996,155.900005 140,154.9 C140.900004,153.899995 141.724996,152.650008 142.475,151.15 C143.225004,149.649992 143.849998,148.050008 144.35,146.35 C144.850002,144.649991 145.149999,143.050007 145.25,141.55 C145.350001,139.649991 146.099993,138.7 147.5,138.7 C148.400004,138.7 148.999999,138.999997 149.3,139.6 C149.600002,140.200003 149.75,140.899996 149.75,141.7 L149.75,142 C149.65,144.00001 149.275003,146.249988 148.625,148.75 C147.974997,151.250012 147.025006,153.599989 145.775,155.8 C144.524994,158.000011 142.90001,159.849992 140.9,161.35 C138.89999,162.850008 136.450015,163.6 133.55,163.6 C129.049978,163.6 126.175006,161.975016 124.925,158.725 C123.674994,155.474984 123.05,150.650032 123.05,144.25 L123.35,133.3 Z M181.85,156.7 C181.85,159.100012 181.050008,160.949994 179.45,162.25 C177.849992,163.550007 176.02501,164.499997 173.975,165.1 C171.92499,165.700003 169.87501,166.074999 167.825,166.225 C165.77499,166.375001 164.300005,166.45 163.4,166.45 C161.999993,166.45 160.27501,166.300002 158.225,166 C156.17499,165.699999 154.17501,165.225003 152.225,164.575 C150.27499,163.924997 148.625007,163.000006 147.275,161.8 C145.924993,160.599994 145.25,159.100009 145.25,157.3 C145.25,156.199995 145.674996,155.425002 146.525,154.975 C147.375004,154.524998 148.199996,154.3 149,154.3 C150.100006,154.3 151.174995,154.699996 152.225,155.5 C153.275005,156.300004 154.374994,157.149996 155.525,158.05 C156.675006,158.950005 157.949993,159.799996 159.35,160.6 C160.750007,161.400004 162.349991,161.8 164.15,161.8 C164.950004,161.8 166.024993,161.525003 167.375,160.975 C168.725007,160.424997 169.4,159.450007 169.4,158.05 C169.4,156.649993 168.825006,155.300007 167.675,154 C166.524994,152.699994 165.075009,151.350007 163.325,149.95 C161.574991,148.549993 159.70001,147.100008 157.7,145.6 C155.69999,144.099993 153.825009,142.475009 152.075,140.725 C150.324991,138.974991 148.875006,137.05001 147.725,134.95 C146.574994,132.849989 146,130.550013 146,128.05 C146,124.549983 147.124989,121.600012 149.375,119.2 C151.625011,116.799988 154.274985,114.900007 157.325,113.5 C160.375015,112.099993 163.499984,111.100003 166.7,110.5 C169.900016,109.899997 172.399991,109.6 174.2,109.6 C175.900009,109.6 177.599992,109.949996 179.3,110.65 C181.000009,111.350004 181.85,112.69999 181.85,114.7 C181.85,115.300003 181.725001,116.174994 181.475,117.325 C181.224999,118.475006 180.825003,119.599995 180.275,120.7 C179.724997,121.800005 179.000004,122.774996 178.1,123.625 C177.199995,124.475004 176.050007,124.9 174.65,124.9 C174.249998,124.9 173.850002,124.725002 173.45,124.375 C173.049998,124.024998 172.600003,123.625002 172.1,123.175 C171.599998,122.724998 171.075003,122.325002 170.525,121.975 C169.974997,121.624998 169.350004,121.45 168.65,121.45 C165.149982,121.45 162.700007,122.47499 161.3,124.525 C159.899993,126.57501 159.2,128.749989 159.2,131.05 C159.2,133.05001 160.374988,135.149989 162.725,137.35 C165.075012,139.550011 167.674986,141.749989 170.525,143.95 C173.375014,146.150011 175.974988,148.324989 178.325,150.475 C180.675012,152.625011 181.85,154.69999 181.85,156.7 Z M278.680522,155.106712 C277.915325,156.825029 276.963492,158.481111 275.825,160.075 C274.574994,161.825009 273.125008,163.299994 271.475,164.5 C269.824992,165.700006 268.00001,166.3 266,166.3 C262.999985,166.3 260.375011,165.150012 258.125,162.85 C255.874989,160.549988 254.500002,157.300021 254,153.1 C253.399997,154.700008 252.700004,156.54999 251.9,158.65 C251.099996,160.750011 250.100006,162.699991 248.9,164.5 C247.699994,166.300009 246.325008,167.824994 244.775,169.075 C243.224992,170.325006 241.400011,170.95 239.3,170.95 C238.699997,170.95 238.250001,170.900001 237.95,170.8 C237.649999,170.699999 237.325002,170.575001 236.975,170.425 C236.624998,170.274999 236.225002,170.150001 235.775,170.05 C235.324998,169.949999 234.700004,169.9 233.9,169.9 C231.499988,169.9 229.475008,169.125008 227.825,167.575 C226.174992,166.024992 224.850005,164.050012 223.85,161.65 C223.052916,159.736998 222.430557,157.68107 221.982913,155.482176 C221.482476,156.771814 220.929839,158.052753 220.325,159.325 C218.874993,162.375015 217.10001,165.049988 215,167.35 C212.89999,169.650012 210.450014,170.8 207.65,170.8 C204.949986,170.8 202.60001,170.025008 200.6,168.475 C198.59999,166.924992 196.925007,164.775014 195.575,162.025 C194.224993,159.274986 193.200004,156.025019 192.5,152.275 C191.799996,148.524981 191.45,144.500022 191.45,140.2 L191.45,138.85 C191.550001,133.749975 191.699999,128.550027 191.9,123.25 C192.100001,117.949973 192.299999,113.050023 192.5,108.55 C192.5,107.749996 191.700008,107.200001 190.1,106.9 C188.499992,106.599998 186.70001,106.300002 184.7,106 C182.69999,105.699998 180.900008,105.225003 179.3,104.575 C177.699992,103.924997 176.9,102.850008 176.9,101.35 C176.9,100.049993 178.199987,99.300001 180.8,99.1 C183.400013,98.899999 187.249975,98.8 192.35,98.8 C192.750002,98.8 193.024999,98.200006 193.175,97 C193.325001,95.799994 193.425,94.2750093 193.475,92.425 C193.525,90.5749908 193.575,88.6000105 193.625,86.5 C193.675,84.3999895 193.75,82.4250093 193.85,80.575 C193.95,78.7249908 194.124999,77.200006 194.375,76 C194.625001,74.799994 194.949998,74.2 195.35,74.2 C195.850002,74.2 196.749993,74.299999 198.05,74.5 C199.350007,74.700001 200.699993,74.9749982 202.1,75.325 C203.500007,75.6750018 204.724995,76.0999975 205.775,76.6 C206.825005,77.1000025 207.35,77.649997 207.35,78.25 L205.7,97.75 C205.7,98.350003 206.224995,98.7749988 207.275,99.025 C208.325005,99.2750013 209.674992,99.4249998 211.325,99.475 C212.975008,99.5250003 214.724991,99.55 216.575,99.55 C218.425009,99.55 220.174992,99.6999985 221.825,100 C223.475008,100.300002 224.824995,100.774997 225.875,101.425 C226.925005,102.075003 227.45,103.049993 227.45,104.35 C227.45,104.550001 227.350001,104.874998 227.15,105.325 C226.949999,105.775002 226.700001,106 226.4,106 C226.199999,106 225.925002,105.850001 225.575,105.55 C225.224998,105.249999 224.300008,105.1 222.8,105.1 C222.399998,105.1 221.300009,105.149999 219.5,105.25 C217.699991,105.350001 215.80001,105.499999 213.8,105.7 C211.79999,105.900001 209.975008,106.124999 208.325,106.375 C206.674992,106.625001 205.750001,106.949998 205.55,107.35 C205.449999,107.550001 205.325001,108.724989 205.175,110.875 C205.024999,113.025011 204.875001,115.849982 204.725,119.35 C204.574999,122.850018 204.45,126.874977 204.35,131.425 C204.25,135.975023 204.2,140.749975 204.2,145.75 C204.2,147.65001 204.299999,149.499991 204.5,151.3 C204.700001,153.100009 204.999998,154.724993 205.4,156.175 C205.800002,157.625007 206.324997,158.799995 206.975,159.7 C207.625003,160.600005 208.399995,161.05 209.3,161.05 C210.600007,161.05 211.799994,160.500005 212.9,159.4 C214.000006,158.299994 214.999996,156.800009 215.9,154.9 C216.800005,152.99999 217.599997,150.850012 218.3,148.45 C219.000003,146.049988 219.599998,143.600012 220.1,141.1 C220.400002,139.599992 220.749998,138.525003 221.15,137.875 C221.166069,137.848887 221.182462,137.823299 221.199177,137.798235 C221.360177,134.658732 221.618784,131.609329 221.975,128.65 C222.625003,123.249973 223.699993,118.475021 225.2,114.325 C226.700008,110.174979 228.649988,106.875012 231.05,104.425 C233.450012,101.974988 236.349983,100.75 239.75,100.75 C241.75001,100.75 243.274995,100.924998 244.325,101.275 C245.375005,101.625002 246.349996,102.024998 247.25,102.475 C248.150005,102.925002 249.124995,103.399998 250.175,103.9 C251.225005,104.400002 252.699991,104.799999 254.6,105.1 C256.700011,106.300006 258.174996,107.724992 259.025,109.375 C259.875004,111.025008 260.424999,112.79999 260.675,114.7 C260.925001,116.600009 261,118.57499 260.9,120.625 C260.8,122.67501 260.899999,124.69999 261.2,126.7 C261.2,126.8 261.424998,126.949999 261.875,127.15 C262.325002,127.350001 262.849997,127.574999 263.45,127.825 C264.050003,128.075001 264.574998,128.424998 265.025,128.875 C265.475002,129.325002 265.7,129.899997 265.7,130.6 L265.7,131.2 C264.699995,133.800013 264.100001,136.09999 263.9,138.1 C263.699999,140.10001 263.6,142.499986 263.6,145.3 C263.6,146.700007 263.674999,148.224992 263.825,149.875 C263.975001,151.525008 264.224998,153.074993 264.575,154.525 C264.925002,155.975007 265.449996,157.174995 266.15,158.125 C266.850004,159.075005 267.749995,159.55 268.85,159.55 C270.050006,159.55 271.124995,158.950006 272.075,157.75 C273.025005,156.549994 273.824997,155.175008 274.475,153.625 C275.125003,152.074992 275.674998,150.500008 276.125,148.9 C276.339143,148.138602 276.513656,147.46779 276.648539,146.887559 C276.449513,145.202916 276.35,143.423733 276.35,141.55 C276.35,137.54998 276.874995,133.350022 277.925,128.95 C278.975005,124.549978 281.099984,120.550018 284.3,116.95 C287.100014,113.749984 290.374981,111.20001 294.125,109.3 C297.875019,107.399991 301.699981,106.45 305.6,106.45 C307.50001,106.45 309.224992,106.724997 310.775,107.275 C312.325008,107.825003 313.199999,108.499996 313.4,109.3 C313.600001,110.400006 313.725,111.774992 313.775,113.425 C313.825,115.075008 313.85,117.249987 313.85,119.95 C313.85,122.250011 313.675002,123.949995 313.325,125.05 C312.974998,126.150006 312.250006,126.7 311.15,126.7 C309.949994,126.6 309.100003,125.975006 308.6,124.825 C308.099998,123.674994 307.600003,122.425007 307.1,121.075 C306.599998,119.724993 305.950004,118.475006 305.15,117.325 C304.349996,116.174994 303.050009,115.55 301.25,115.45 C298.649987,115.45 296.500009,116.44999 294.8,118.45 C293.099992,120.45001 291.775005,122.799987 290.825,125.5 C289.874995,128.200014 289.225002,130.899987 288.875,133.6 C288.524998,136.300014 288.35,138.399992 288.35,139.9 C288.35,145.700029 289.224991,150.674979 290.975,154.825 C292.725009,158.975021 295.849978,161.249998 300.35,161.65 L302,161.8 C305.100016,161.8 307.599991,161.025008 309.5,159.475 C311.40001,157.924992 312.924994,156.225009 314.075,154.375 C315.225006,152.524991 316.124997,150.825008 316.775,149.275 C317.425003,147.724992 318.099997,146.95 318.8,146.95 L319.25,146.95 C320.550007,147.050001 321.2,147.899992 321.2,149.5 C321.2,150.200004 320.950003,151.199994 320.45,152.5 C318.049988,158.200029 314.975019,162.324987 311.225,164.875 C307.474981,167.425013 303.050026,168.7 297.95,168.7 L296.525,168.7 C296.074998,168.7 295.600003,168.650001 295.1,168.55 C292.599988,168.249999 290.200012,167.475006 287.9,166.225 C285.599989,164.974994 283.600009,163.225011 281.9,160.975 C280.632168,159.296988 279.559014,157.340903 278.680522,155.106712 Z M351.35,161.65 C351.35,162.850006 350.925004,163.899995 350.075,164.8 C349.224996,165.700004 348.175006,166.499997 346.925,167.2 C345.674994,167.900004 344.375007,168.424998 343.025,168.775 C341.674993,169.125002 340.550005,169.3 339.65,169.3 C337.949992,169.3 336.07501,169.125002 334.025,168.775 C331.97499,168.424998 330.250007,167.700006 328.85,166.6 C327.249992,165.299994 325.925005,163.225014 324.875,160.375 C323.824995,157.524986 323.025003,154.12502 322.475,150.175 C321.924997,146.22498 321.550001,141.825024 321.35,136.975 C321.149999,132.124976 321.05,127.050027 321.05,121.75 C321.05,119.549989 321.124999,117.100014 321.275,114.4 C321.425001,111.699986 321.599999,108.875015 321.8,105.925 C322.000001,102.974985 322.249999,100.025015 322.55,97.075 C322.850002,94.1249853 323.149998,91.3000135 323.45,88.6 C323.750001,86.6999905 324.099998,84.650011 324.5,82.45 C324.900002,80.249989 325.324998,78.15001 325.775,76.15 C326.225002,74.14999 326.749997,72.350008 327.35,70.75 C327.950003,69.149992 328.599997,68.0000035 329.3,67.3 C330.100004,66.499996 331.174993,65.9750013 332.525,65.725 C333.875007,65.4749988 335.099994,65.35 336.2,65.35 C338.500012,65.35 340.349993,65.949994 341.75,67.15 C343.150007,68.350006 344.224996,69.9749897 344.975,72.025 C345.725004,74.0750103 346.224999,76.4249868 346.475,79.075 C346.725001,81.7250133 346.85,84.549985 346.85,87.55 C346.85,92.150023 346.700001,97.1249732 346.4,102.475 C346.099998,107.825027 345.475005,113.199973 344.525,118.6 C343.574995,124.000027 342.225009,129.249975 340.475,134.35 C338.724991,139.450025 336.400014,144.099979 333.5,148.3 C333.600001,149.700007 333.774999,151.324991 334.025,153.175 C334.275001,155.025009 334.649998,156.749992 335.15,158.35 C335.650003,159.950008 336.299996,161.299995 337.1,162.4 C337.900004,163.500005 338.949994,164.05 340.25,164.05 C341.450006,164.05 342.399996,163.775003 343.1,163.225 C343.800004,162.674997 344.424997,162.050004 344.975,161.35 C345.525003,160.649996 346.074997,160.025003 346.625,159.475 C347.175003,158.924997 347.899995,158.65 348.8,158.65 C349.800005,158.65 350.474998,158.949997 350.825,159.55 C351.175002,160.150003 351.35,160.849996 351.35,161.65 Z M340.1,91.15 C340.1,90.149995 340.075,88.950007 340.025,87.55 C339.975,86.149993 339.825001,84.7750067 339.575,83.425 C339.324999,82.0749933 339.000002,80.9250047 338.6,79.975 C338.199998,79.0249953 337.650003,78.55 336.95,78.55 C335.949995,78.55 335.150003,79.949986 334.55,82.75 C333.949997,85.550014 333.475002,89.2249772 333.125,93.775 C332.774998,98.3250228 332.525001,103.474971 332.375,109.225 C332.224999,114.975029 332.15,120.799971 332.15,126.7 L332.15,132.025 C332.15,133.875009 332.249999,135.499993 332.45,136.9 C335.750017,128.999961 337.849996,121.350037 338.75,113.95 C339.650005,106.549963 340.1,98.950039 340.1,91.15 Z M383.9,136 C383.9,135.599998 383.875,134.700007 383.825,133.3 C383.775,131.899993 383.675001,130.25001 383.525,128.35 C383.374999,126.44999 383.125002,124.47501 382.775,122.425 C382.424998,120.37499 381.925003,118.500009 381.275,116.8 C380.624997,115.099992 379.800005,113.675006 378.8,112.525 C377.799995,111.374994 376.550007,110.8 375.05,110.8 C373.549993,110.8 372.100007,111.399994 370.7,112.6 C369.299993,113.800006 368.050005,115.349991 366.95,117.25 C365.849994,119.150009 364.975003,121.299988 364.325,123.7 C363.674997,126.100012 363.35,128.449989 363.35,130.75 C363.35,134.75002 364.149992,137.674991 365.75,139.525 C367.350008,141.375009 370.099981,142.3 374,142.3 C376.900014,142.3 379.274991,141.850005 381.125,140.95 C382.975009,140.049995 383.9,139.350002 383.9,138.85 L383.9,136 Z M383.15,148.3 C381.949994,149.100004 380.300011,149.699998 378.2,150.1 C376.099989,150.500002 374.350007,150.7 372.95,150.7 C370.249987,150.7 368.175007,150.500002 366.725,150.1 C365.274993,149.699998 363.700009,148.900006 362,147.7 L361.85,150.85 C361.85,151.950006 361.999999,153.099994 362.3,154.3 C362.600002,155.500006 363.074997,156.599995 363.725,157.6 C364.375003,158.600005 365.299994,159.424997 366.5,160.075 C367.700006,160.725003 369.199991,161.05 371,161.05 C373.200011,161.05 375.074992,160.625004 376.625,159.775 C378.175008,158.924996 379.424995,157.850007 380.375,156.55 C381.325005,155.249994 382.024998,153.850008 382.475,152.35 C382.925002,150.849992 383.15,149.500006 383.15,148.3 Z M400.874017,123.058991 L401.45,109.9 C401.45,108.599994 402.149993,107.95 403.55,107.95 C404.050003,107.95 404.749996,108.024999 405.65,108.175 C406.550005,108.325001 407.499995,108.549998 408.5,108.85 C409.500005,109.150002 410.349997,109.524998 411.05,109.975 C411.750004,110.425002 412.1,110.949997 412.1,111.55 L412.1,142 C412.2,141.9 412.349999,141.500003 412.55,140.8 C413.250004,138.999991 414.099995,136.775013 415.1,134.125 C416.100005,131.474987 417.199994,128.950012 418.4,126.55 C419.600006,124.149988 420.874993,122.100009 422.225,120.4 C423.575007,118.699992 424.949993,117.85 426.35,117.85 C428.150009,117.85 429.524995,118.274996 430.475,119.125 C431.425005,119.975004 432.149998,121.049993 432.65,122.35 C433.150003,123.650006 433.449999,125.049993 433.55,126.55 C433.650001,128.050007 433.7,129.499993 433.7,130.9 C433.7,131.900005 433.600001,133.549989 433.4,135.85 C433.199999,138.150012 433.1,141.599977 433.1,146.2 C433.1,148.800013 433.349998,151.14999 433.85,153.25 C434.350003,155.35001 435.349992,156.4 436.85,156.4 C437.950005,156.4 438.949995,155.900005 439.85,154.9 C440.750005,153.899995 441.574996,152.650008 442.325,151.15 C443.075004,149.649992 443.699997,148.050008 444.2,146.35 C444.700002,144.649991 445,143.050007 445.1,141.55 C445.126416,141.048099 445.198188,140.612489 445.315315,140.24317 C445.458412,137.434519 445.836639,134.420146 446.45,131.2 C447.250004,126.999979 448.499992,123.075018 450.2,119.425 C451.900009,115.774982 454.049987,112.725012 456.65,110.275 C459.250013,107.824988 462.399982,106.6 466.1,106.6 C467.900009,106.6 469.599992,106.974996 471.2,107.725 C472.800008,108.475004 474.199994,109.449994 475.4,110.65 C476.600006,111.850006 477.549997,113.249992 478.25,114.85 C478.950003,116.450008 479.349999,118.099992 479.45,119.8 L479.6,121.9 C479.6,124.300012 479.200004,126.924986 478.4,129.775 C477.599996,132.625014 476.450008,135.274988 474.95,137.725 C473.449993,140.175012 471.600011,142.224992 469.4,143.875 C467.199989,145.525008 464.700014,146.35 461.9,146.35 C461.399998,146.35 460.775004,146.300001 460.025,146.2 C459.274996,146.1 458.550004,145.950001 457.85,145.75 L457.85,150.1 C457.85,150.800004 458.074998,151.799994 458.525,153.1 C458.975002,154.400007 459.649996,155.674994 460.55,156.925 C461.450005,158.175006 462.624993,159.274995 464.075,160.225 C465.525007,161.175005 467.29999,161.65 469.4,161.65 C472.300014,161.65 474.674991,161.075006 476.525,159.925 C478.375009,158.774994 479.899994,157.300009 481.1,155.5 C482.300006,153.699991 483.224997,151.675011 483.875,149.425 C484.525003,147.174989 485.049998,145.000011 485.45,142.9 C485.750002,141.499993 486.049999,140.550003 486.35,140.05 C486.650002,139.549998 487.149997,139.3 487.85,139.3 C489.350008,139.3 490.1,140.149991 490.1,141.85 L490.1,142.9 C490.1,145.400013 489.650005,148.199985 488.75,151.3 C487.849995,154.400016 486.45001,157.274987 484.55,159.925 C482.649991,162.575013 480.225015,164.799991 477.275,166.6 C474.324985,168.400009 470.800021,169.3 466.7,169.3 C462.799981,169.3 459.500014,168.600007 456.8,167.2 C454.099986,165.799993 451.875009,163.900012 450.125,161.5 C448.539064,159.325002 447.363785,156.800994 446.599136,153.927912 C446.297671,154.563563 445.972959,155.187592 445.625,155.8 C444.374994,158.000011 442.75001,159.849992 440.75,161.35 C438.74999,162.850008 436.300014,163.6 433.4,163.6 C428.899977,163.6 426.025006,161.975016 424.775,158.725 C423.524994,155.474984 422.9,150.650032 422.9,144.25 L423.2,133.3 C421.699993,135.400011 420.475005,137.724987 419.525,140.275 C418.574995,142.825013 417.750004,145.474986 417.05,148.225 C416.349997,150.975014 415.775002,153.724986 415.325,156.475 C414.874998,159.225014 414.400003,161.849987 413.9,164.35 C413.699999,164.950003 412.925007,165.349999 411.575,165.55 C410.224993,165.750001 409.250003,165.85 408.65,165.85 C406.849991,165.85 405.375006,165.750001 404.225,165.55 C403.074994,165.349999 402.200003,164.875004 401.6,164.125 C400.999997,163.374996 400.550002,162.225008 400.25,160.675 C399.949998,159.124992 399.700001,157.050013 399.5,154.45 L400.295145,136.284004 C399.647943,137.316661 398.982896,138.271991 398.3,139.15 C397.499996,140.250005 396.625005,141.249996 395.675,142.15 C394.724995,143.050005 393.750005,143.899996 392.75,144.7 C392.65,146.400009 392.575,147.574997 392.525,148.225 C392.475,148.875003 392.400001,149.399998 392.3,149.8 C392.099999,151.300007 391.600004,153.199988 390.8,155.5 C389.999996,157.800012 388.875007,160.049989 387.425,162.25 C385.974993,164.450011 384.22501,166.324992 382.175,167.875 C380.12499,169.425008 377.750014,170.2 375.05,170.2 C374.149995,170.2 373.125006,170.100001 371.975,169.9 C370.824994,169.699999 369.650006,169.425002 368.45,169.075 C367.249994,168.724998 366.100006,168.325002 365,167.875 C363.899994,167.424998 362.950004,166.950003 362.15,166.45 C359.649988,165.049993 357.600008,163.40001 356,161.5 C354.399992,159.59999 353.175004,157.575011 352.325,155.425 C351.474996,153.274989 350.900002,151.075011 350.6,148.825 C350.299999,146.574989 350.15,144.400011 350.15,142.3 C350.15,138.699982 350.524996,135.050018 351.275,131.35 C352.025004,127.649981 352.949995,124.100017 354.05,120.7 C355.150006,117.299983 356.399993,114.250013 357.8,111.55 C359.200007,108.849986 360.549994,106.750007 361.85,105.25 C363.150007,103.849993 364.599992,102.875003 366.2,102.325 C367.800008,101.774997 369.249994,101.5 370.55,101.5 C372.150008,101.5 373.749992,101.899996 375.35,102.7 C376.950008,103.500004 378.499992,104.499994 380,105.7 C381.500008,106.900006 382.974993,108.274992 384.425,109.825 C385.875007,111.375008 387.249994,112.899993 388.55,114.4 C389.550005,115.500006 390.299998,117.274988 390.8,119.725 C391.300003,122.175012 391.699998,124.649988 392,127.15 C392.200001,128.550007 392.349999,130.049992 392.45,131.65 C392.550001,133.250008 392.6,134.899991 392.6,136.6 C394.100008,135.399994 395.299996,134.125007 396.2,132.775 C397.100005,131.424993 397.824997,130.150006 398.375,128.95 C398.925003,127.749994 399.374998,126.625005 399.725,125.575 C400.075002,124.524995 400.449998,123.700003 400.85,123.1 C400.857889,123.086194 400.865895,123.072524 400.874017,123.058991 Z M472.4,119.65 C472.4,118.849996 472.175002,118.000005 471.725,117.1 C471.274998,116.199995 470.450006,115.75 469.25,115.75 C467.449991,115.75 465.900007,116.69999 464.6,118.6 C463.299994,120.50001 462.225004,122.674988 461.375,125.125 C460.524996,127.575012 459.900002,129.924989 459.5,132.175 C459.099998,134.425011 458.9,135.899996 458.9,136.6 L458.9,137.05 C458.9,137.950005 458.974999,138.674997 459.125,139.225 C459.275001,139.775003 459.799996,140.05 460.7,140.05 L461.45,140.05 C463.45001,140.05 465.149993,139.300007 466.55,137.8 C467.950007,136.299993 469.074996,134.500011 469.925,132.4 C470.775004,130.29999 471.399998,128.150011 471.8,125.95 C472.200002,123.749989 472.4,121.950007 472.4,120.55 L472.4,119.65 Z" id="Instaclone"></path>
        </g>
    </g>
</svg>
